<svg width="181" height="94" viewBox="0 0 181 94" fill="none" xmlns="http://www.w3.org/2000/svg">
<path d="M43.1719 51.7969C42.5781 51.7656 42 51.7188 41.4375 51.6562C40.9688 51.5938 40.5 51.5469 40.0312 51.5156C39.5938 51.4844 39.2656 51.4688 39.0469 51.4688C37.8281 51.4688 36.6094 51.4844 35.3906 51.5156C34.1719 51.5781 32.9688 51.6719 31.7812 51.7969C31.8125 50.4844 31.8281 49.2031 31.8281 47.9531C31.8594 46.6719 31.875 45.375 31.875 44.0625C31.875 41.7188 31.8281 39.3906 31.7344 37.0781C31.6719 34.7656 31.6094 32.4531 31.5469 30.1406L21.7031 52.4062C20.2656 48.5 18.7188 44.6719 17.0625 40.9219C15.4375 37.1406 13.7344 33.375 11.9531 29.625L12.7031 52.7812C12.3594 52.7812 12 52.7656 11.625 52.7344C11.2812 52.7344 10.9219 52.7344 10.5469 52.7344C9.35938 52.7344 8.1875 52.7812 7.03125 52.875C5.90625 52.9688 4.76562 53.0625 3.60938 53.1562C3.76562 50.25 3.92188 47.3594 4.07812 44.4844C4.23438 41.6094 4.3125 38.7188 4.3125 35.8125C4.3125 32.4062 4.28125 29.0156 4.21875 25.6406C4.1875 22.2656 4.15625 18.875 4.125 15.4688C6.375 15.4688 8.5625 15.4062 10.6875 15.2812C12.8438 15.1563 15.0469 14.9844 17.2969 14.7656C18.0469 17.2656 18.8125 19.75 19.5938 22.2188C20.4062 24.6562 21.2656 27.0938 22.1719 29.5312C23.1406 27.2188 24.2344 24.9531 25.4531 22.7344C26.7031 20.5156 27.9688 18.3125 29.25 16.125C31.375 16.0625 33.4688 16 35.5312 15.9375C37.625 15.875 39.7344 15.8281 41.8594 15.7969C41.9531 18.6094 42.0625 21.3906 42.1875 24.1406C42.3438 26.8906 42.4844 29.6719 42.6094 32.4844C42.7031 34.7031 42.7812 36.9219 42.8438 39.1406C42.9375 41.3594 43.0156 43.5625 43.0781 45.75L43.1719 49.6875V51.7969ZM54.5508 27.4805C54.5508 27.9492 54.4453 28.3945 54.2344 28.8164C54.0469 29.2148 53.7773 29.5664 53.4258 29.8711C53.0977 30.1758 52.7227 30.4219 52.3008 30.6094C51.8789 30.7734 51.457 30.8555 51.0352 30.8555C50.5664 30.8555 50.1211 30.75 49.6992 30.5391C49.3008 30.3281 48.9492 30.0586 48.6445 29.7305C48.3398 29.4023 48.1055 29.0273 47.9414 28.6055C47.7773 28.1602 47.6953 27.7148 47.6953 27.2695C47.6953 26.8242 47.7773 26.4141 47.9414 26.0391C48.1289 25.6406 48.3633 25.3008 48.6445 25.0195C48.9492 24.7383 49.2891 24.5156 49.6641 24.3516C50.0625 24.1875 50.4844 24.1055 50.9297 24.1055C51.375 24.1055 51.8086 24.1992 52.2305 24.3867C52.6758 24.5508 53.0625 24.7969 53.3906 25.125C53.7422 25.4297 54.0234 25.793 54.2344 26.2148C54.4453 26.6133 54.5508 27.0352 54.5508 27.4805ZM55.9922 33.457C55.875 34.6992 55.7812 35.9297 55.7109 37.1484C55.6406 38.3672 55.5703 39.5859 55.5 40.8047C55.4062 42.2344 55.2422 43.6523 55.0078 45.0586C54.7969 46.4648 54.5508 47.8711 54.2695 49.2773L48.8906 49.8398C48.8906 49.0898 48.8906 48.3516 48.8906 47.625C48.9141 46.8984 48.9258 46.1602 48.9258 45.4102C48.9258 43.4883 48.8906 41.5664 48.8203 39.6445C48.75 37.7227 48.6797 35.8008 48.6094 33.8789C49.8516 33.832 51.0703 33.7617 52.2656 33.668C53.4844 33.5742 54.7266 33.5039 55.9922 33.457ZM80.4961 40.5586C80.4961 41.1914 80.4961 41.8359 80.4961 42.4922C80.4961 43.125 80.4727 43.7578 80.4258 44.3906L72.5859 44.8828C72.6797 43.6641 72.75 42.457 72.7969 41.2617C72.8672 40.0664 72.9023 38.8477 72.9023 37.6055C72.9023 37.4883 72.9023 37.2891 72.9023 37.0078C72.9023 36.7266 72.8906 36.4336 72.8672 36.1289C72.8438 35.8008 72.8203 35.4961 72.7969 35.2148C72.7734 34.9336 72.75 34.7344 72.7266 34.6172C72.6094 34.2891 72.4805 34.0078 72.3398 33.7734C72.2227 33.5391 72.0703 33.3516 71.8828 33.2109C71.7188 33.0703 71.5078 32.9766 71.25 32.9297C70.9922 32.8594 70.6758 32.8242 70.3008 32.8242C70.0195 32.8242 69.6562 32.8477 69.2109 32.8945C68.7891 32.9414 68.3555 33.0117 67.9102 33.1055C67.4648 33.1992 67.043 33.3164 66.6445 33.457C66.2461 33.5977 65.9648 33.7617 65.8008 33.9492L65.7305 44.3203C65.6836 44.2266 65.543 44.1797 65.3086 44.1797C65.0977 44.1797 64.9453 44.1797 64.8516 44.1797C64.1484 44.1797 63.4219 44.2148 62.6719 44.2852C61.9219 44.332 61.1953 44.4023 60.4922 44.4961C60.1875 41.7305 59.918 38.9766 59.6836 36.2344C59.4492 33.4922 59.1797 30.7383 58.875 27.9727C59.3438 27.9492 59.8125 27.9375 60.2812 27.9375C60.75 27.9141 61.2188 27.9023 61.6875 27.9023C62.2969 27.9023 62.9062 27.9258 63.5156 27.9727C64.1484 27.9961 64.7695 28.0195 65.3789 28.043L65.625 30.75C66.2812 29.6719 67.1719 28.7695 68.2969 28.043C69.4219 27.3164 70.6289 26.9531 71.918 26.9531C72.5742 26.9531 73.2539 26.9883 73.957 27.0586C74.6602 27.1289 75.3281 27.2695 75.9609 27.4805C76.6172 27.6914 77.2266 27.9844 77.7891 28.3594C78.375 28.7344 78.8672 29.2148 79.2656 29.8008C79.4531 30.082 79.6055 30.5039 79.7227 31.0664C79.8633 31.6055 79.9805 32.2266 80.0742 32.9297C80.168 33.6094 80.2383 34.3359 80.2852 35.1094C80.3555 35.8828 80.4023 36.6211 80.4258 37.3242C80.4492 38.0273 80.4609 38.6719 80.4609 39.2578C80.4844 39.8203 80.4961 40.2539 80.4961 40.5586ZM107.355 38.5547C107.355 39.5391 107.344 40.5234 107.32 41.5078C107.32 42.4688 107.32 43.4414 107.32 44.4258C107.297 44.9414 107.285 45.4688 107.285 46.0078C107.309 46.5469 107.297 47.0859 107.25 47.625C107.18 48.1406 107.109 48.6914 107.039 49.2773C106.969 49.8398 106.852 50.4023 106.688 50.9648C106.523 51.5273 106.301 52.0547 106.02 52.5469C105.762 53.0391 105.41 53.4609 104.965 53.8125C104.848 53.9062 104.613 53.9883 104.262 54.0586C103.91 54.1289 103.5 54.1992 103.031 54.2695C102.562 54.3398 102.059 54.3984 101.52 54.4453C100.98 54.4922 100.465 54.5273 99.9727 54.5508C99.4805 54.5977 99.0352 54.6328 98.6367 54.6562C98.2383 54.7031 97.957 54.7266 97.793 54.7266C96.3164 54.7734 94.8516 54.8086 93.3984 54.832C91.9688 54.8555 90.5156 54.8672 89.0391 54.8672H86.7891C86.7422 54.4688 86.6953 54.0586 86.6484 53.6367C86.6016 53.2148 86.5781 52.793 86.5781 52.3711C86.5781 51.9023 86.5312 51.4219 86.4375 50.9297C86.3438 50.4141 86.2383 49.9102 86.1211 49.418L88.4414 49.4531C88.582 49.4531 88.9688 49.4531 89.6016 49.4531C90.2578 49.4297 91.0195 49.418 91.8867 49.418C92.7539 49.3945 93.6797 49.3711 94.6641 49.3477C95.6719 49.3008 96.5977 49.2422 97.4414 49.1719C98.2852 49.1016 99 49.0195 99.5859 48.9258C100.195 48.832 100.535 48.7266 100.605 48.6094C100.793 48.3047 100.91 47.9648 100.957 47.5898C101.004 47.1914 101.027 46.8164 101.027 46.4648C101.027 46.2773 101.016 46.0898 100.992 45.9023C100.992 45.6914 100.98 45.4922 100.957 45.3047C99.6445 45.3984 98.3438 45.4805 97.0547 45.5508C95.7656 45.6211 94.4531 45.6562 93.1172 45.6562C92.8125 45.6562 92.4258 45.6562 91.957 45.6562C91.5117 45.6562 91.043 45.6445 90.5508 45.6211C90.082 45.5977 89.6133 45.5625 89.1445 45.5156C88.6992 45.4688 88.3359 45.3984 88.0547 45.3047C87.5859 45.1641 87.1055 45.0117 86.6133 44.8477C86.1445 44.6602 85.6992 44.4375 85.2773 44.1797C84.8555 43.9219 84.4805 43.6172 84.1523 43.2656C83.8477 42.8906 83.6367 42.4453 83.5195 41.9297C83.4492 41.6719 83.4023 41.3906 83.3789 41.0859C83.3789 40.7812 83.3789 40.5 83.3789 40.2422C83.3789 39.5859 83.4141 38.7539 83.4844 37.7461C83.5547 36.7383 83.6719 35.7188 83.8359 34.6875C84.0234 33.6328 84.2578 32.6484 84.5391 31.7344C84.8438 30.7969 85.2188 30.0938 85.6641 29.625C85.9219 29.3438 86.332 29.0977 86.8945 28.8867C87.4805 28.6758 88.1367 28.5 88.8633 28.3594C89.5898 28.2188 90.3516 28.1016 91.1484 28.0078C91.9688 27.8906 92.7656 27.8086 93.5391 27.7617C94.3125 27.7148 95.0156 27.6797 95.6484 27.6562C96.3047 27.6328 96.8203 27.6211 97.1953 27.6211C98.5078 27.6211 99.8203 27.6562 101.133 27.7266L101.379 25.4766L107.285 26.3555C107.309 28.3945 107.32 30.4219 107.32 32.4375C107.344 34.4531 107.355 36.4922 107.355 38.5547ZM101.133 37.8867C101.133 37.1367 101.121 36.4102 101.098 35.707C101.074 34.9805 101.039 34.2422 100.992 33.4922C99.9609 33.2578 98.9297 33.0703 97.8984 32.9297C96.8672 32.7891 95.8125 32.7188 94.7344 32.7188C94.5469 32.7188 94.2656 32.7305 93.8906 32.7539C93.5156 32.7773 93.1172 32.8242 92.6953 32.8945C92.2969 32.9414 91.9219 33.0234 91.5703 33.1406C91.2188 33.2344 90.9727 33.3516 90.832 33.4922C90.6211 33.7266 90.4922 33.9961 90.4453 34.3008C90.3984 34.6055 90.375 34.9102 90.375 35.2148C90.375 35.4727 90.3984 35.8711 90.4453 36.4102C90.5156 36.9258 90.5977 37.4648 90.6914 38.0273C90.7852 38.5898 90.9023 39.1172 91.043 39.6094C91.1836 40.1016 91.3242 40.4414 91.4648 40.6289C91.6055 40.8164 91.7812 40.957 91.9922 41.0508C92.2031 41.1445 92.4258 41.2148 92.6602 41.2617C92.918 41.2852 93.1641 41.3086 93.3984 41.332C93.6562 41.332 93.8789 41.332 94.0664 41.332C94.5352 41.332 95.0977 41.3203 95.7539 41.2969C96.4336 41.25 97.1016 41.1797 97.7578 41.0859C98.4375 40.9922 99.0703 40.8633 99.6562 40.6992C100.242 40.5117 100.688 40.2656 100.992 39.9609C101.039 39.9375 101.074 39.8203 101.098 39.6094C101.121 39.3984 101.133 39.1758 101.133 38.9414C101.133 38.707 101.133 38.4844 101.133 38.2734C101.133 38.0625 101.133 37.9336 101.133 37.8867ZM118.781 23.9648C118.594 26.2383 118.406 28.5 118.219 30.75C118.055 33 117.914 35.2617 117.797 37.5352C117.68 39.5977 117.551 41.6484 117.41 43.6875C117.293 45.7031 117.176 47.7422 117.059 49.8047L111.68 50.0859C111.68 47.9531 111.68 45.8438 111.68 43.7578C111.703 41.6484 111.691 39.5273 111.645 37.3945C111.598 35.2617 111.504 33.1523 111.363 31.0664C111.223 28.957 111.082 26.8359 110.941 24.7031L118.781 23.9648ZM145.922 37.957C142.852 38.1211 139.793 38.2617 136.746 38.3789C133.699 38.4727 130.641 38.5781 127.57 38.6953C127.547 38.7891 127.535 38.8828 127.535 38.9766C127.535 39.0703 127.535 39.1641 127.535 39.2578C127.535 40.0547 127.711 40.6641 128.062 41.0859C128.438 41.5078 128.895 41.8125 129.434 42C129.973 42.1641 130.57 42.2578 131.227 42.2812C131.883 42.3047 132.492 42.3164 133.055 42.3164C134.625 42.3164 136.195 42.2695 137.766 42.1758C139.336 42.0586 140.918 41.9414 142.512 41.8242L142.793 47.4141C141.246 47.4844 139.699 47.543 138.152 47.5898C136.629 47.6367 135.094 47.6602 133.547 47.6602C133.219 47.6602 132.609 47.6602 131.719 47.6602C130.852 47.6367 129.914 47.6016 128.906 47.5547C127.922 47.4844 126.996 47.4023 126.129 47.3086C125.262 47.2148 124.688 47.0859 124.406 46.9219C123.68 46.5 123.105 45.9609 122.684 45.3047C122.285 44.6484 121.969 43.9336 121.734 43.1602C121.523 42.3867 121.371 41.6016 121.277 40.8047C121.207 39.9844 121.16 39.1992 121.137 38.4492C121.113 38.332 121.102 38.2148 121.102 38.0977C121.125 37.957 121.137 37.8281 121.137 37.7109C121.137 36.4688 121.266 35.3203 121.523 34.2656C121.805 33.1875 122.309 32.1445 123.035 31.1367C123.527 30.4336 124.254 29.8477 125.215 29.3789C126.176 28.9102 127.219 28.5469 128.344 28.2891C129.469 28.0078 130.594 27.8203 131.719 27.7266C132.844 27.6094 133.816 27.5508 134.637 27.5508C135.363 27.5508 136.254 27.6211 137.309 27.7617C138.363 27.8789 139.406 28.0898 140.438 28.3945C141.492 28.6992 142.441 29.0977 143.285 29.5898C144.129 30.0586 144.703 30.6445 145.008 31.3477C145.055 31.4883 145.102 31.7344 145.148 32.0859C145.219 32.4141 145.289 32.8008 145.359 33.2461C145.43 33.668 145.488 34.125 145.535 34.6172C145.605 35.1094 145.664 35.5781 145.711 36.0234C145.758 36.4688 145.793 36.8672 145.816 37.2188C145.863 37.5703 145.898 37.8164 145.922 37.957ZM141.141 35.3906C141 34.3594 140.73 33.5508 140.332 32.9648C139.957 32.3555 139.477 31.9102 138.891 31.6289C138.328 31.3242 137.672 31.1367 136.922 31.0664C136.195 30.9727 135.41 30.9258 134.566 30.9258C134.285 30.9258 133.934 30.9375 133.512 30.9609C133.09 30.9609 132.668 30.9961 132.246 31.0664C131.824 31.1133 131.426 31.1953 131.051 31.3125C130.676 31.4297 130.383 31.5938 130.172 31.8047C130.008 31.9453 129.867 32.1445 129.75 32.4023C129.656 32.6367 129.574 32.8945 129.504 33.1758C129.434 33.457 129.375 33.7383 129.328 34.0195C129.305 34.2773 129.293 34.5 129.293 34.6875C129.293 35.0625 129.328 35.4258 129.398 35.7773L141.141 35.3906Z" fill="#077187"/>
<path d="M76.3789 81.5977C75.9336 81.5742 75.5 81.5391 75.0781 81.4922C74.7266 81.4453 74.375 81.4102 74.0234 81.3867C73.6953 81.3633 73.4492 81.3516 73.2852 81.3516C72.3711 81.3516 71.457 81.3633 70.543 81.3867C69.6289 81.4336 68.7266 81.5039 67.8359 81.5977C67.8594 80.6133 67.8711 79.6523 67.8711 78.7148C67.8945 77.7539 67.9062 76.7812 67.9062 75.7969C67.9062 74.0391 67.8711 72.293 67.8008 70.5586C67.7539 68.8242 67.707 67.0898 67.6602 65.3555L60.2773 82.0547C59.1992 79.125 58.0391 76.2539 56.7969 73.4414C55.5781 70.6055 54.3008 67.7812 52.9648 64.9688L53.5273 82.3359C53.2695 82.3359 53 82.3242 52.7188 82.3008C52.4609 82.3008 52.1914 82.3008 51.9102 82.3008C51.0195 82.3008 50.1406 82.3359 49.2734 82.4062C48.4297 82.4766 47.5742 82.5469 46.707 82.6172C46.8242 80.4375 46.9414 78.2695 47.0586 76.1133C47.1758 73.957 47.2344 71.7891 47.2344 69.6094C47.2344 67.0547 47.2109 64.5117 47.1641 61.9805C47.1406 59.4492 47.1172 56.9062 47.0938 54.3516C48.7812 54.3516 50.4219 54.3047 52.0156 54.2109C53.6328 54.1172 55.2852 53.9883 56.9727 53.8242C57.5352 55.6992 58.1094 57.5625 58.6953 59.4141C59.3047 61.2422 59.9492 63.0703 60.6289 64.8984C61.3555 63.1641 62.1758 61.4648 63.0898 59.8008C64.0273 58.1367 64.9766 56.4844 65.9375 54.8438C67.5312 54.7969 69.1016 54.75 70.6484 54.7031C72.2188 54.6562 73.8008 54.6211 75.3945 54.5977C75.4648 56.707 75.5469 58.793 75.6406 60.8555C75.7578 62.918 75.8633 65.0039 75.957 67.1133C76.0273 68.7773 76.0859 70.4414 76.1328 72.1055C76.2031 73.7695 76.2617 75.4219 76.3086 77.0625L76.3789 80.0156V81.5977ZM105.629 65.1445C105.629 67.1133 105.559 69.0703 105.418 71.0156C105.277 72.9609 105.137 74.9062 104.996 76.8516C102.371 77.0859 99.7578 77.2852 97.1562 77.4492C94.5547 77.6133 91.9414 77.6953 89.3164 77.6953C89.082 77.6953 88.6484 77.6953 88.0156 77.6953C87.3828 77.6719 86.7148 77.6484 86.0117 77.625C85.3086 77.5781 84.6406 77.5312 84.0078 77.4844C83.375 77.4141 82.9531 77.3203 82.7422 77.2031C81.9688 76.7812 81.4297 76.2539 81.125 75.6211C80.8203 74.9648 80.668 74.2266 80.668 73.4062C80.668 73.125 80.6797 72.75 80.7031 72.2812C80.7266 71.8125 80.7734 71.3203 80.8438 70.8047C80.9141 70.2891 81.0078 69.8086 81.125 69.3633C81.2422 68.918 81.3828 68.5898 81.5469 68.3789C81.7578 68.0977 82.2383 67.8633 82.9883 67.6758C83.7383 67.4648 84.6289 67.3008 85.6602 67.1836C86.7148 67.0664 87.8398 66.9727 89.0352 66.9023C90.2539 66.832 91.4141 66.7852 92.5156 66.7617C93.6172 66.7148 94.6016 66.6914 95.4688 66.6914C96.3359 66.6914 96.957 66.6914 97.332 66.6914C97.4023 66.1758 97.4375 65.6719 97.4375 65.1797C97.4375 65.1328 97.4375 65.0156 97.4375 64.8281C97.4375 64.6172 97.4258 64.4883 97.4023 64.4414C97.332 64.3008 97.1094 64.1836 96.7344 64.0898C96.3594 63.9961 95.8906 63.9258 95.3281 63.8789C94.7891 63.832 94.1914 63.7969 93.5352 63.7734C92.9023 63.7266 92.2812 63.7031 91.6719 63.7031C91.0625 63.7031 90.5234 63.7031 90.0547 63.7031C89.5859 63.7031 89.2461 63.7031 89.0352 63.7031C87.5586 63.7031 86.082 63.7383 84.6055 63.8086C83.1289 63.8555 81.6523 63.9023 80.1758 63.9492C80.2695 63.0586 80.3398 62.1562 80.3867 61.2422C80.457 60.3281 80.4688 59.4258 80.4219 58.5352C82.1328 58.2305 83.8438 58.0195 85.5547 57.9023C87.2891 57.7617 89.0352 57.6914 90.793 57.6914C91.4258 57.6914 92.1172 57.7031 92.8672 57.7266C93.6172 57.7266 94.3672 57.75 95.1172 57.7969C95.8672 57.8203 96.6055 57.8672 97.332 57.9375C98.082 58.0078 98.7734 58.1016 99.4062 58.2188C100.062 58.3359 100.707 58.5469 101.34 58.8516C101.996 59.1562 102.605 59.5312 103.168 59.9766C103.73 60.4219 104.223 60.9375 104.645 61.5234C105.066 62.0859 105.371 62.6953 105.559 63.3516C105.582 63.4219 105.594 63.5391 105.594 63.7031C105.617 63.8672 105.629 64.0547 105.629 64.2656C105.629 64.4531 105.629 64.6289 105.629 64.793C105.629 64.957 105.629 65.0742 105.629 65.1445ZM97.7891 73.4062V68.9062C97.1094 68.8828 96.4297 68.8711 95.75 68.8711C95.0703 68.8477 94.3906 68.8359 93.7109 68.8359C93.5703 68.8359 93.1719 68.8477 92.5156 68.8711C91.8828 68.8711 91.1914 68.8945 90.4414 68.9414C89.7148 68.9883 89.0469 69.0469 88.4375 69.1172C87.8281 69.1875 87.4766 69.293 87.3828 69.4336C87.2656 69.6211 87.1836 69.8203 87.1367 70.0312C87.1133 70.2188 87.1016 70.418 87.1016 70.6289C87.1016 70.793 87.1133 71.0156 87.1367 71.2969C87.1602 71.5781 87.1953 71.8711 87.2422 72.1758C87.3125 72.4805 87.3828 72.7617 87.4531 73.0195C87.5234 73.2773 87.6172 73.4648 87.7344 73.582C87.8281 73.6992 87.9805 73.793 88.1914 73.8633C88.4258 73.9102 88.6719 73.957 88.9297 74.0039C89.1875 74.0273 89.4453 74.0508 89.7031 74.0742C89.9609 74.0742 90.1602 74.0742 90.3008 74.0742C90.8633 74.0742 91.4609 74.0508 92.0938 74.0039C92.75 73.957 93.4062 73.9102 94.0625 73.8633C94.7422 73.793 95.3984 73.7227 96.0312 73.6523C96.6641 73.5586 97.25 73.4766 97.7891 73.4062ZM133.121 61.6289L124.086 68.168C124.156 68.4492 124.297 68.9062 124.508 69.5391C124.719 70.1484 124.953 70.793 125.211 71.4727C125.469 72.1289 125.738 72.75 126.02 73.3359C126.324 73.8984 126.605 74.2617 126.863 74.4258C127.027 74.543 127.238 74.6367 127.496 74.707C127.754 74.7773 128.012 74.8359 128.27 74.8828C128.551 74.9297 128.82 74.9648 129.078 74.9883C129.359 74.9883 129.594 74.9883 129.781 74.9883C130.109 74.9883 130.449 74.9766 130.801 74.9531C131.152 74.9297 131.492 74.8945 131.82 74.8477C131.773 75.1523 131.738 75.4688 131.715 75.7969C131.691 76.1016 131.68 76.418 131.68 76.7461C131.68 77.3086 131.691 77.8711 131.715 78.4336C131.738 78.9961 131.75 79.5469 131.75 80.0859C131.586 80.1094 131.293 80.1445 130.871 80.1914C130.473 80.2148 130.004 80.25 129.465 80.2969C128.949 80.3203 128.398 80.3555 127.812 80.4023C127.227 80.4492 126.676 80.4961 126.16 80.543C125.668 80.5664 125.234 80.5781 124.859 80.5781C124.508 80.5781 124.285 80.5547 124.191 80.5078C123.793 80.3203 123.406 80.1211 123.031 79.9102C122.656 79.6992 122.34 79.4062 122.082 79.0312C121.965 78.8672 121.766 78.4219 121.484 77.6953C121.227 76.9688 120.945 76.1719 120.641 75.3047C120.359 74.4375 120.09 73.6289 119.832 72.8789C119.598 72.1289 119.445 71.6484 119.375 71.4375L116 73.6172V79.7344L109.039 80.332C109.18 77.0508 109.332 73.793 109.496 70.5586C109.66 67.3008 109.742 64.0195 109.742 60.7148C109.742 59.707 109.73 58.7109 109.707 57.7266C109.707 56.7422 109.695 55.7344 109.672 54.7031C110.633 54.8906 111.582 55.0078 112.52 55.0547C113.48 55.1016 114.441 55.1719 115.402 55.2656V68.4141C117.23 67.2891 119.012 66.1406 120.746 64.9688C122.504 63.7969 124.203 62.5078 125.844 61.1016C127.086 61.2422 128.293 61.3477 129.465 61.418C130.66 61.4883 131.879 61.5586 133.121 61.6289ZM157.555 67.957C154.484 68.1211 151.426 68.2617 148.379 68.3789C145.332 68.4727 142.273 68.5781 139.203 68.6953C139.18 68.7891 139.168 68.8828 139.168 68.9766C139.168 69.0703 139.168 69.1641 139.168 69.2578C139.168 70.0547 139.344 70.6641 139.695 71.0859C140.07 71.5078 140.527 71.8125 141.066 72C141.605 72.1641 142.203 72.2578 142.859 72.2812C143.516 72.3047 144.125 72.3164 144.688 72.3164C146.258 72.3164 147.828 72.2695 149.398 72.1758C150.969 72.0586 152.551 71.9414 154.145 71.8242L154.426 77.4141C152.879 77.4844 151.332 77.543 149.785 77.5898C148.262 77.6367 146.727 77.6602 145.18 77.6602C144.852 77.6602 144.242 77.6602 143.352 77.6602C142.484 77.6367 141.547 77.6016 140.539 77.5547C139.555 77.4844 138.629 77.4023 137.762 77.3086C136.895 77.2148 136.32 77.0859 136.039 76.9219C135.312 76.5 134.738 75.9609 134.316 75.3047C133.918 74.6484 133.602 73.9336 133.367 73.1602C133.156 72.3867 133.004 71.6016 132.91 70.8047C132.84 69.9844 132.793 69.1992 132.77 68.4492C132.746 68.332 132.734 68.2148 132.734 68.0977C132.758 67.957 132.77 67.8281 132.77 67.7109C132.77 66.4688 132.898 65.3203 133.156 64.2656C133.438 63.1875 133.941 62.1445 134.668 61.1367C135.16 60.4336 135.887 59.8477 136.848 59.3789C137.809 58.9102 138.852 58.5469 139.977 58.2891C141.102 58.0078 142.227 57.8203 143.352 57.7266C144.477 57.6094 145.449 57.5508 146.27 57.5508C146.996 57.5508 147.887 57.6211 148.941 57.7617C149.996 57.8789 151.039 58.0898 152.07 58.3945C153.125 58.6992 154.074 59.0977 154.918 59.5898C155.762 60.0586 156.336 60.6445 156.641 61.3477C156.688 61.4883 156.734 61.7344 156.781 62.0859C156.852 62.4141 156.922 62.8008 156.992 63.2461C157.062 63.668 157.121 64.125 157.168 64.6172C157.238 65.1094 157.297 65.5781 157.344 66.0234C157.391 66.4688 157.426 66.8672 157.449 67.2188C157.496 67.5703 157.531 67.8164 157.555 67.957ZM152.773 65.3906C152.633 64.3594 152.363 63.5508 151.965 62.9648C151.59 62.3555 151.109 61.9102 150.523 61.6289C149.961 61.3242 149.305 61.1367 148.555 61.0664C147.828 60.9727 147.043 60.9258 146.199 60.9258C145.918 60.9258 145.566 60.9375 145.145 60.9609C144.723 60.9609 144.301 60.9961 143.879 61.0664C143.457 61.1133 143.059 61.1953 142.684 61.3125C142.309 61.4297 142.016 61.5938 141.805 61.8047C141.641 61.9453 141.5 62.1445 141.383 62.4023C141.289 62.6367 141.207 62.8945 141.137 63.1758C141.066 63.457 141.008 63.7383 140.961 64.0195C140.938 64.2773 140.926 64.5 140.926 64.6875C140.926 65.0625 140.961 65.4258 141.031 65.7773L152.773 65.3906ZM180.617 66.1641V66.9727L173.832 67.2891C173.902 66.9844 173.938 66.6328 173.938 66.2344C173.938 65.6484 173.855 65.2734 173.691 65.1094C173.527 64.9219 173.164 64.8281 172.602 64.8281C171.805 64.8281 170.926 64.9688 169.965 65.25C169.004 65.5312 168.16 65.8008 167.434 66.0586C167.316 67.0898 167.223 68.1211 167.152 69.1523C167.082 70.1836 167.047 71.2148 167.047 72.2461C167.047 73.3945 167.047 74.543 167.047 75.6914C167.07 76.8164 167.094 77.9531 167.117 79.1016L161.07 79.4883C160.953 77.9883 160.836 76.5 160.719 75.0234C160.602 73.5234 160.496 72.0234 160.402 70.5234C160.285 68.5312 160.133 66.5508 159.945 64.582C159.758 62.5898 159.57 60.5859 159.383 58.5703C160.719 58.6641 162.043 58.8047 163.355 58.9922C164.691 59.1562 166.027 59.3672 167.363 59.625L167.188 62.5781C167.891 62.0156 168.559 61.5352 169.191 61.1367C169.848 60.7148 170.504 60.3633 171.16 60.082C171.84 59.8008 172.555 59.6016 173.305 59.4844C174.055 59.3438 174.887 59.2734 175.801 59.2734C176.41 59.2734 177.043 59.3438 177.699 59.4844C178.355 59.6016 178.918 59.8945 179.387 60.3633C179.621 60.6211 179.82 61.0078 179.984 61.5234C180.148 62.0391 180.277 62.5898 180.371 63.1758C180.465 63.7383 180.523 64.3008 180.547 64.8633C180.594 65.4023 180.617 65.8359 180.617 66.1641Z" fill="#077187"/>
</svg>
